/* XPM */
static char * small_chevre_xpm[] = {
"32 32 931 2",
"  	c #735F59",
". 	c #796660",
"+ 	c #786660",
"@ 	c #6D5750",
"# 	c #654037",
"$ 	c #6F4032",
"% 	c #7B4A39",
"& 	c #885340",
"* 	c #8E5541",
"= 	c #724E3F",
"- 	c #41403A",
"; 	c #20211D",
"> 	c #121110",
", 	c #302119",
"' 	c #8B5A40",
") 	c #B17F5E",
"! 	c #B58260",
"~ 	c #B5815E",
"{ 	c #B37C5A",
"] 	c #A8704F",
"^ 	c #90644C",
"/ 	c #7C6454",
"( 	c #70655B",
"_ 	c #50544D",
": 	c #4A4D47",
"< 	c #544E49",
"[ 	c #383834",
"} 	c #242B27",
"| 	c #2F332F",
"1 	c #433E3A",
"2 	c #483F3C",
"3 	c #78645E",
"4 	c #6E5851",
"5 	c #623F35",
"6 	c #6B3D31",
"7 	c #784839",
"8 	c #865340",
"9 	c #8A5340",
"0 	c #734E3F",
"a 	c #43433C",
"b 	c #1F221F",
"c 	c #111110",
"d 	c #11100F",
"e 	c #36231A",
"f 	c #8E5F44",
"g 	c #B08163",
"h 	c #B38161",
"i 	c #B07A57",
"j 	c #AE7653",
"k 	c #A87454",
"l 	c #926A53",
"m 	c #7D6455",
"n 	c #675E54",
"o 	c #4A5049",
"p 	c #444740",
"q 	c #46423D",
"r 	c #30332F",
"s 	c #242B28",
"t 	c #373B37",
"u 	c #4F4945",
"v 	c #473E3A",
"w 	c #77615A",
"x 	c #7A655E",
"y 	c #79645E",
"z 	c #6C544C",
"A 	c #5E3C32",
"B 	c #693D32",
"C 	c #7C4C3C",
"D 	c #8B5A48",
"E 	c #8F5B48",
"F 	c #7D5749",
"G 	c #575550",
"H 	c #2C2F2D",
"I 	c #38261C",
"J 	c #93684D",
"K 	c #B0886E",
"L 	c #B1866B",
"M 	c #AE7C5D",
"N 	c #AC7B5C",
"O 	c #A67B60",
"P 	c #906C57",
"Q 	c #7D6557",
"R 	c #6A5F55",
"S 	c #4D5049",
"T 	c #474841",
"U 	c #49443F",
"V 	c #333531",
"W 	c #2B312E",
"X 	c #3C403D",
"Y 	c #443F3B",
"Z 	c #322C28",
"` 	c #78635B",
" .	c #79645C",
"..	c #756159",
"+.	c #684F46",
"@.	c #613E33",
"#.	c #714538",
"$.	c #825342",
"%.	c #8F5F4C",
"&.	c #956552",
"*.	c #8D6B5C",
"=.	c #716E6C",
"-.	c #3D403F",
";.	c #151413",
">.	c #161512",
",.	c #37271D",
"'.	c #926B53",
").	c #B08D78",
"!.	c #B18E79",
"~.	c #AD856D",
"{.	c #AC8269",
"].	c #A57E68",
"^.	c #8C6C5B",
"/.	c #755E51",
"(.	c #645950",
"_.	c #464B44",
":.	c #4A4943",
"<.	c #4D4842",
"[.	c #32322E",
"}.	c #2A302D",
"|.	c #444641",
"1.	c #665B52",
"2.	c #675A52",
"3.	c #887671",
"4.	c #8A7873",
"5.	c #87766F",
"6.	c #735B52",
"7.	c #684539",
"8.	c #794F40",
"9.	c #8A5D4A",
"0.	c #926552",
"a.	c #986E5A",
"b.	c #957567",
"c.	c #7C7A77",
"d.	c #4F504D",
"e.	c #29231E",
"f.	c #28211B",
"g.	c #3A2A20",
"h.	c #926E57",
"i.	c #AE907E",
"j.	c #B0927F",
"k.	c #AD8870",
"l.	c #AB8067",
"m.	c #A47D67",
"n.	c #8B6E5E",
"o.	c #786355",
"p.	c #675A50",
"q.	c #484C45",
"r.	c #55524B",
"s.	c #5C544D",
"t.	c #3C3A35",
"u.	c #282E2B",
"v.	c #505049",
"w.	c #8D8075",
"x.	c #948278",
"y.	c #947E78",
"z.	c #957E78",
"A.	c #917B74",
"B.	c #7B6259",
"C.	c #69483C",
"D.	c #754F40",
"E.	c #895D4A",
"F.	c #916451",
"G.	c #976D59",
"H.	c #957566",
"I.	c #85807C",
"J.	c #786E64",
"K.	c #695342",
"L.	c #5D4838",
"M.	c #533D2F",
"N.	c #93715C",
"O.	c #AE9180",
"P.	c #AE9280",
"Q.	c #AC8872",
"R.	c #A98673",
"S.	c #A98F83",
"T.	c #A4938C",
"U.	c #9E8F89",
"V.	c #998D88",
"W.	c #86827F",
"X.	c #857E7B",
"Y.	c #7B726B",
"Z.	c #272D2A",
"`.	c #4C4A43",
" +	c #8E7F74",
".+	c #99867B",
"++	c #967E74",
"@+	c #977B71",
"#+	c #91786E",
"$+	c #7E6359",
"%+	c #6A493F",
"&+	c #754E41",
"*+	c #885C4A",
"=+	c #8F624F",
"-+	c #966C58",
";+	c #957464",
">+	c #8D837D",
",+	c #9D8D7D",
"'+	c #A3866F",
")+	c #9C8068",
"!+	c #947962",
"~+	c #A1856F",
"{+	c #AD9588",
"]+	c #B3AAAB",
"^+	c #B3ACAE",
"/+	c #B8AFB1",
"(+	c #B9AFAF",
"_+	c #B5A9A4",
":+	c #AF9F96",
"<+	c #AB9A90",
"[+	c #9B8C83",
"}+	c #90837B",
"|+	c #83786E",
"1+	c #575249",
"2+	c #2C322E",
"3+	c #504E49",
"4+	c #81736A",
"5+	c #7E6E66",
"6+	c #8D7970",
"7+	c #8E776E",
"8+	c #8B756A",
"9+	c #7B6156",
"0+	c #6C4C41",
"a+	c #79574B",
"b+	c #8D6E63",
"c+	c #9A837D",
"d+	c #A4928F",
"e+	c #AA9FA1",
"f+	c #ABA7AA",
"g+	c #B0AAAA",
"h+	c #ABA2A1",
"i+	c #B1AAAC",
"j+	c #B4ADB0",
"k+	c #B6AEB0",
"l+	c #BCB9C1",
"m+	c #C3C3CE",
"n+	c #C3C2CB",
"o+	c #B2ACAF",
"p+	c #AB9D95",
"q+	c #9E8774",
"r+	c #9E8674",
"s+	c #968171",
"t+	c #655F54",
"u+	c #6F665A",
"v+	c #807468",
"w+	c #625B54",
"x+	c #46484B",
"y+	c #474448",
"z+	c #3B3634",
"A+	c #48413F",
"B+	c #816F69",
"C+	c #84746E",
"D+	c #887A77",
"E+	c #8E8484",
"F+	c #968F93",
"G+	c #918D93",
"H+	c #8F8B90",
"I+	c #928F92",
"J+	c #9A989D",
"K+	c #A19FA4",
"L+	c #97979E",
"M+	c #9BA2B5",
"N+	c #B4B8C9",
"O+	c #BABCCB",
"P+	c #BDC0CC",
"Q+	c #C0C1CE",
"R+	c #C2C2CD",
"S+	c #C6C5CF",
"T+	c #AAA9B0",
"U+	c #756B64",
"V+	c #A08C7D",
"W+	c #A79180",
"X+	c #9D8977",
"Y+	c #5E5950",
"Z+	c #6C655D",
"`+	c #7D7775",
" @	c #5D585A",
".@	c #524741",
"+@	c #322A27",
"@@	c #23201D",
"#@	c #34302E",
"$@	c #79675C",
"%@	c #746D6D",
"&@	c #767275",
"*@	c #6D686B",
"=@	c #5F5A5B",
"-@	c #4C4543",
";@	c #4F3E36",
">@	c #58443B",
",@	c #62534D",
"'@	c #686467",
")@	c #5A5A60",
"!@	c #41444F",
"~@	c #79849A",
"{@	c #929BB0",
"]@	c #ABB0C1",
"^@	c #B5B9C8",
"/@	c #BEC0CD",
"(@	c #C1C1CD",
"_@	c #BBBBC4",
":@	c #6E6667",
"<@	c #927B73",
"[@	c #887267",
"}@	c #917D6C",
"|@	c #63615C",
"1@	c #6D6C6E",
"2@	c #4A4545",
"3@	c #332A27",
"4@	c #231D1A",
"5@	c #0E0C0C",
"6@	c #191717",
"7@	c #4A4546",
"8@	c #9E856F",
"9@	c #907964",
"0@	c #8E7662",
"a@	c #846754",
"b@	c #705143",
"c@	c #7B5A4C",
"d@	c #8E6A59",
"e@	c #96725E",
"f@	c #947262",
"g@	c #5F5352",
"h@	c #716766",
"i@	c #816F6B",
"j@	c #453E43",
"k@	c #2C3243",
"l@	c #656F83",
"m@	c #848DA0",
"n@	c #898F9F",
"o@	c #A6A9B6",
"p@	c #BEBFC9",
"q@	c #C6C5CE",
"r@	c #938A8C",
"s@	c #9C8074",
"t@	c #A08171",
"u@	c #8F827D",
"v@	c #7F7D83",
"w@	c #645B57",
"x@	c #312D29",
"y@	c #0C0C0B",
"z@	c #181514",
"A@	c #2B2725",
"B@	c #363232",
"C@	c #5D5961",
"D@	c #A9917B",
"E@	c #AB937F",
"F@	c #AB937E",
"G@	c #9C816B",
"H@	c #7F6153",
"I@	c #857879",
"J@	c #918079",
"K@	c #9F8779",
"L@	c #8B766B",
"M@	c #3A373F",
"N@	c #746561",
"O@	c #92786C",
"P@	c #24252F",
"Q@	c #1F2636",
"R@	c #33394C",
"S@	c #3D455A",
"T@	c #4A5161",
"U@	c #8B8F99",
"V@	c #C5C4CC",
"W@	c #B8B3B8",
"X@	c #967B6F",
"Y@	c #A3836F",
"Z@	c #887B75",
"`@	c #776B65",
" #	c #574E48",
".#	c #151110",
"+#	c #151210",
"@#	c #211D1B",
"##	c #4D4744",
"$#	c #5C5657",
"%#	c #817574",
"&#	c #A79484",
"*#	c #A59384",
"=#	c #9F8D7C",
"-#	c #8E7869",
";#	c #766257",
">#	c #6D6463",
",#	c #78706B",
"'#	c #968B86",
")#	c #877C79",
"!#	c #585358",
"~#	c #5A5251",
"{#	c #816D64",
"]#	c #70564B",
"^#	c #2F2A2E",
"/#	c #181E2C",
"(#	c #252C3E",
"_#	c #2D3346",
":#	c #4A5060",
"<#	c #636872",
"[#	c #B6B6BD",
"}#	c #BCB9C0",
"|#	c #806256",
"1#	c #978379",
"2#	c #696C70",
"3#	c #584C45",
"4#	c #312723",
"5#	c #120E0C",
"6#	c #241D1A",
"7#	c #574C47",
"8#	c #8A7D75",
"9#	c #95837A",
"0#	c #9B8274",
"a#	c #B0A09A",
"b#	c #AD9E97",
"c#	c #A3938B",
"d#	c #716660",
"e#	c #60554C",
"f#	c #625850",
"g#	c #322F2C",
"h#	c #645E5D",
"i#	c #4B4646",
"j#	c #3F3E44",
"k#	c #3E3C43",
"l#	c #70696C",
"m#	c #736560",
"n#	c #2E282B",
"o#	c #171C27",
"p#	c #1F2533",
"q#	c #444D5F",
"r#	c #858EA2",
"s#	c #A3A9B9",
"t#	c #B5B6C0",
"u#	c #C6C3CA",
"v#	c #A39491",
"w#	c #716662",
"x#	c #7F7674",
"y#	c #594A41",
"z#	c #15100D",
"A#	c #221D1A",
"B#	c #594F49",
"C#	c #6F6359",
"D#	c #695F54",
"E#	c #9B8375",
"F#	c #A08576",
"G#	c #A49794",
"H#	c #A29590",
"I#	c #9A8A83",
"J#	c #6D635D",
"K#	c #635449",
"L#	c #3D352D",
"M#	c #0B0B0A",
"N#	c #312D2B",
"O#	c #211F1D",
"P#	c #212429",
"Q#	c #31394A",
"R#	c #424049",
"S#	c #5C565A",
"T#	c #342E2E",
"U#	c #181B23",
"V#	c #1D232F",
"W#	c #69748A",
"X#	c #9CA5BA",
"Y#	c #B1B5C6",
"Z#	c #BDBDC8",
"`#	c #C5C3CB",
" $	c #B1AEB1",
".$	c #443F3C",
"+$	c #775745",
"@$	c #412E24",
"#$	c #342A24",
"$$	c #62544C",
"%$	c #645C54",
"&$	c #3D403B",
"*$	c #62594E",
"=$	c #9A7F6F",
"-$	c #A18474",
";$	c #94857E",
">$	c #908178",
",$	c #89786E",
"'$	c #73675E",
")$	c #817468",
"!$	c #675D56",
"~$	c #090908",
"{$	c #11100E",
"]$	c #313134",
"^$	c #3B383E",
"/$	c #16161A",
"($	c #1A1B20",
"_$	c #252327",
":$	c #1C1D24",
"<$	c #272D3A",
"[$	c #79879F",
"}$	c #8A95AC",
"|$	c #9FA4B6",
"1$	c #AEB0BD",
"2$	c #BFBEC6",
"3$	c #9D9798",
"4$	c #504C48",
"5$	c #624133",
"6$	c #645247",
"7$	c #60544C",
"8$	c #756A63",
"9$	c #5E5A56",
"0$	c #4B4D4A",
"a$	c #6A6056",
"b$	c #9C8171",
"c$	c #A38778",
"d$	c #9E8C86",
"e$	c #9D8D84",
"f$	c #98887F",
"g$	c #8E8078",
"h$	c #8C827A",
"i$	c #5F564F",
"j$	c #282220",
"k$	c #1A1714",
"l$	c #0D0C0A",
"m$	c #231A17",
"n$	c #261D1A",
"o$	c #131213",
"p$	c #10141A",
"q$	c #191A1F",
"r$	c #28262B",
"s$	c #51586A",
"t$	c #666E82",
"u$	c #696D7D",
"v$	c #898A93",
"w$	c #99979D",
"x$	c #9F9CA1",
"y$	c #A29A9C",
"z$	c #483F39",
"A$	c #523B31",
"B$	c #71665E",
"C$	c #6E6560",
"D$	c #8B7F79",
"E$	c #78716C",
"F$	c #63605D",
"G$	c #7B6D62",
"H$	c #A08475",
"I$	c #A3897B",
"J$	c #A89791",
"K$	c #A79792",
"L$	c #A79691",
"M$	c #9F918C",
"N$	c #827570",
"O$	c #675B55",
"P$	c #766A64",
"Q$	c #7B6F69",
"R$	c #50443E",
"S$	c #251D19",
"T$	c #1B1310",
"U$	c #131211",
"V$	c #111418",
"W$	c #131519",
"X$	c #312F33",
"Y$	c #676C7E",
"Z$	c #63646E",
"`$	c #4B4A53",
" %	c #67646A",
".%	c #6C686B",
"+%	c #615C5A",
"@%	c #908D90",
"#%	c #5E5857",
"$%	c #59453C",
"%%	c #948781",
"&%	c #A09490",
"*%	c #958A85",
"=%	c #867D76",
"-%	c #938177",
";%	c #A4897A",
">%	c #A28778",
",%	c #A99994",
"'%	c #A99993",
")%	c #AA9A94",
"!%	c #A89993",
"~%	c #A79992",
"{%	c #A69791",
"]%	c #A59791",
"^%	c #A59892",
"/%	c #9A8D88",
"(%	c #645853",
"_%	c #281E1A",
":%	c #141313",
"<%	c #101214",
"[%	c #3C3C45",
"}%	c #858495",
"|%	c #998C96",
"1%	c #7E767F",
"2%	c #3C393D",
"3%	c #4C494B",
"4%	c #746E70",
"5%	c #9D979C",
"6%	c #858083",
"7%	c #5F463D",
"8%	c #A2948F",
"9%	c #A49793",
"0%	c #A69893",
"a%	c #A2928C",
"b%	c #A4938B",
"c%	c #A5938A",
"d%	c #A38F84",
"e%	c #AB9B96",
"f%	c #AA9A95",
"g%	c #A99A94",
"h%	c #A99B94",
"i%	c #A89A93",
"j%	c #A79993",
"k%	c #A69A94",
"l%	c #A2948E",
"m%	c #6B5D58",
"n%	c #181413",
"o%	c #121212",
"p%	c #494852",
"q%	c #92808B",
"r%	c #A496A2",
"s%	c #9C8A94",
"t%	c #817377",
"u%	c #565153",
"v%	c #817B7E",
"w%	c #8C817E",
"x%	c #948987",
"y%	c #684C42",
"z%	c #A49690",
"A%	c #A79791",
"B%	c #A6968F",
"C%	c #A69690",
"D%	c #A5958F",
"E%	c #A4948E",
"F%	c #AB9C97",
"G%	c #AA9B95",
"H%	c #A99B95",
"I%	c #A89C96",
"J%	c #A89B96",
"K%	c #A89B95",
"L%	c #A79B95",
"M%	c #A59891",
"N%	c #897A73",
"O%	c #31231E",
"P%	c #1F1816",
"Q%	c #1C1918",
"R%	c #544E57",
"S%	c #7D6569",
"T%	c #9B858F",
"U%	c #846467",
"V%	c #765C5D",
"W%	c #41393B",
"X%	c #483F3F",
"Y%	c #6C5B52",
"Z%	c #6D5548",
"`%	c #74574C",
" &	c #A4938D",
".&	c #A4948D",
"+&	c #A3948D",
"@&	c #A2928B",
"#&	c #A1918A",
"$&	c #A7968F",
"%&	c #A6958E",
"&&	c #A69994",
"*&	c #A49791",
"=&	c #A2938C",
"-&	c #9A8A82",
";&	c #392D28",
">&	c #251A18",
",&	c #201A19",
"'&	c #38373E",
")&	c #4A3A3A",
"!&	c #836668",
"~&	c #85625F",
"{&	c #665452",
"]&	c #6D6060",
"^&	c #564C49",
"/&	c #382F2B",
"(&	c #433127",
"_&	c #7E645A",
":&	c #A3918A",
"<&	c #A4928A",
"[&	c #A3928A",
"}&	c #A2918A",
"|&	c #A2928A",
"1&	c #A08E86",
"2&	c #9D8B81",
"3&	c #A49189",
"4&	c #A28E86",
"5&	c #A69993",
"6&	c #A39690",
"7&	c #A2938D",
"8&	c #A1918B",
"9&	c #5F524E",
"0&	c #261A17",
"a&	c #211917",
"b&	c #2E2A2E",
"c&	c #393638",
"d&	c #5A5152",
"e&	c #5C5352",
"f&	c #504847",
"g&	c #574B49",
"h&	c #63534D",
"i&	c #453C37",
"j&	c #483027",
"k&	c #91766B",
"l&	c #A4918A",
"m&	c #A28F87",
"n&	c #A18D83",
"o&	c #A18C83",
"p&	c #A18C84",
"q&	c #A18D84",
"r&	c #9F897F",
"s&	c #9C867B",
"t&	c #A59590",
"u&	c #A59690",
"v&	c #A3958F",
"w&	c #A3948E",
"x&	c #81736E",
"y&	c #2A1D19",
"z&	c #221B18",
"A&	c #1E1C1B",
"B&	c #1A191A",
"C&	c #232223",
"D&	c #2C2726",
"E&	c #3B3130",
"F&	c #392E2A",
"G&	c #322924",
"H&	c #2D2823",
"I&	c #583A2E",
"J&	c #9A8276",
"K&	c #A28E84",
"L&	c #A08A80",
"M&	c #9E887E",
"N&	c #9F8A80",
"O&	c #A08B81",
"P&	c #A18B81",
"Q&	c #A08A7E",
"R&	c #9C857A",
"S&	c #A4948F",
"T&	c #998A83",
"U&	c #3E312C",
"V&	c #291B17",
"W&	c #171412",
"X&	c #121111",
"Y&	c #1B1A1A",
"Z&	c #0F0F10",
"`&	c #161514",
" *	c #2E2926",
".*	c #1F1D1A",
"+*	c #272220",
"@*	c #6B5549",
"#*	c #A08A7F",
"$*	c #9E8A80",
"%*	c #9E897F",
"&*	c #9E877E",
"**	c #9C877D",
"=*	c #A5948E",
"-*	c #A69691",
";*	c #A69790",
">*	c #A49790",
",*	c #A59790",
"'*	c #A3938E",
")*	c #706159",
"!*	c #2A1B16",
"~*	c #1B130F",
"{*	c #0C0B0A",
"]*	c #221E1E",
"^*	c #1C1B1A",
"/*	c #0D0E0D",
"(*	c #171513",
"_*	c #302621",
":*	c #806D63",
"<*	c #9C897E",
"[*	c #9E8A81",
"}*	c #A18C82",
"|*	c #9D867D",
"1*	c #9A8279",
"2*	c #988278",
"3*	c #A59189",
"4*	c #A5938C",
"5*	c #A4958F",
"6*	c #A3928B",
"7*	c #A29088",
"8*	c #87766D",
"9*	c #372925",
"0*	c #1E1410",
"a*	c #0D0C0B",
"b*	c #0B0A0A",
"c*	c #080708",
"d*	c #0A0909",
"e*	c #231B17",
"f*	c #806D64",
"g*	c #A08C82",
"h*	c #9E8B80",
"i*	c #A08D83",
"j*	c #9F8B82",
"k*	c #9A857C",
"l*	c #9B8379",
"m*	c #9B857B",
"n*	c #7B7070",
"o*	c #7F7373",
"p*	c #847876",
"q*	c #887C79",
"r*	c #8B7E7B",
"s*	c #8F827E",
"t*	c #938580",
"u*	c #9D8D87",
"v*	c #A19189",
"w*	c #A18F87",
"x*	c #A18E84",
"y*	c #8D7B71",
"z*	c #372A26",
"A*	c #2D1F1B",
"B*	c #110F0E",
"C*	c #0D0C0C",
"D*	c #070708",
"E*	c #090808",
"F*	c #2C231E",
"G*	c #7B6960",
"H*	c #9E8B82",
"I*	c #9F8B81",
"J*	c #A08D84",
"K*	c #A18D85",
"L*	c #9B857C",
"M*	c #9A847A",
"N*	c #3E3437",
"O*	c #3A3235",
"P*	c #393237",
"Q*	c #3D373D",
"R*	c #3E383E",
"S*	c #403C41",
"T*	c #433F45",
"U*	c #4A4444",
"V*	c #908079",
"W*	c #9F8F87",
"X*	c #9F8E86",
"Y*	c #9E8C83",
"Z*	c #927F75",
"`*	c #322520",
" =	c #2C201E",
".=	c #151212",
"+=	c #181412",
"@=	c #100E0C",
"#=	c #1B1410",
"$=	c #4E342B",
"%=	c #706158",
"&=	c #97857C",
"*=	c #9E8B83",
"==	c #9E8C81",
"-=	c #9F8C83",
";=	c #9A8379",
">=	c #978074",
",=	c #36221D",
"'=	c #39231C",
")=	c #3D251C",
"!=	c #3C221B",
"~=	c #38211A",
"{=	c #392620",
"]=	c #312725",
"^=	c #463F3B",
"/=	c #918179",
"(=	c #9C8A81",
"_=	c #938076",
":=	c #362620",
"<=	c #1F1A1A",
"[=	c #1B1818",
"}=	c #1D1817",
"|=	c #1C1513",
"1=	c #0A0A09",
"2=	c #312720",
"3=	c #49392F",
"4=	c #493F3A",
"5=	c #6E615A",
"6=	c #807068",
"7=	c #897971",
"8=	c #8B7B73",
"9=	c #918077",
"0=	c #97847B",
"a=	c #9A857B",
"b=	c #998278",
"c=	c #967E73",
"d=	c #392019",
"e=	c #3C2118",
"f=	c #43231A",
"g=	c #462219",
"h=	c #46241B",
"i=	c #3A1E17",
"j=	c #3F2219",
"k=	c #39241E",
"l=	c #2A201D",
"m=	c #70625C",
"n=	c #9E8C84",
"o=	c #99857B",
"p=	c #44322C",
"q=	c #221E1D",
"r=	c #272322",
"s=	c #232120",
"t=	c #1E1A18",
"u=	c #131111",
"v=	c #181614",
"w=	c #1E1814",
"x=	c #181310",
"y=	c #231E1B",
"z=	c #372C28",
"A=	c #4B3830",
"B=	c #594439",
"C=	c #5F4B41",
"D=	c #6F5F56",
"E=	c #928279",
"F=	c #927E74",
"G=	c #998177",
"H=	c #988176",
"I=	c #3C1D15",
"J=	c #412017",
"K=	c #462116",
"L=	c #4D2519",
"M=	c #4D261B",
"N=	c #431F15",
"O=	c #46251A",
"P=	c #452920",
"Q=	c #301C15",
"R=	c #6D5E56",
"S=	c #A08E84",
"T=	c #9D897F",
"U=	c #513E37",
"V=	c #26201F",
"W=	c #2E2A28",
"X=	c #332F2E",
"Y=	c #34302C",
"Z=	c #252221",
"`=	c #2C2826",
" -	c #241A17",
".-	c #1C120D",
"+-	c #2D1913",
"@-	c #37221C",
"#-	c #3B251D",
"$-	c #3C2017",
"%-	c #3C1C13",
"&-	c #371D15",
"*-	c #55423A",
"=-	c #92837A",
"--	c #937D72",
"  . + @ # $ % & * = - ; > > , ' ) ! ~ { ] ^ / ( _ : < [ } | 1 2 ",
"  3 + 4 5 6 7 8 9 0 a b c d e f g h i j k l m n o p q r s t u v ",
"w x y z A B C D E F G H c > I J K L M N O P Q R S T U V W X Y Z ",
"`  ...+.@.#.$.%.&.*.=.-.;.>.,.'.).!.~.{.].^./.(._.:.<.[.}.|.1.2.",
"3.4.5.6.7.8.9.0.a.b.c.d.e.f.g.h.i.j.k.l.m.n.o.p.q.r.s.t.u.v.w.x.",
"y.z.A.B.C.D.E.F.G.H.I.J.K.L.M.N.O.P.Q.R.S.T.U.V.W.X.Y.<.Z.`. +.+",
"++@+#+$+%+&+*+=+-+;+>+,+'+)+!+~+{+]+^+/+(+_+:+<+[+}+|+1+2+3+4+5+",
"6+7+8+9+0+a+b+c+d+e+f+g+h+i+j+k+l+m+n+o+p+q+r+s+t+u+v+w+x+y+z+A+",
"5+B+C+D+E+F+G+H+I+J+K+L+M+N+O+P+Q+R+S+T+U+V+W+X+Y+Z+`+ @.@+@@@#@",
"$@%@&@*@=@-@;@>@,@'@)@!@~@{@]@^@/@(@S+_@:@<@[@}@|@1@2@3@4@5@6@7@",
"8@9@0@a@b@c@d@e@f@g@h@i@j@k@l@m@n@o@p@q@r@s@t@u@v@w@x@y@z@A@B@C@",
"D@E@F@G@H@I@J@K@L@M@N@O@x P@Q@R@S@T@U@V@W@X@Y@Z@`@ #.#+#@###$#%#",
"&#*#=#-#;#>#,#'#)#!#~#{#]#^#/#(#_#:#<#[#}#|#1#2#3#4#5#6#7#8#9#0#",
"a#b#c#d#e#f#g#h#i#j#k#l#m#n#o#p#q#r#s#t#u#v#w#x#y#z#A#B#C#D#E#F#",
"G#H#I#J#K#L#M#N#O#P#Q#R#S#T#U#V#W#X#Y#Z#`# $.$+$@$#$$$%$&$*$=$-$",
";$>$,$'$)$!$d ~${$]$^$/$($_$:$<$[$}$|$1$2$3$4$5$6$7$8$9$0$a$b$c$",
"d$e$f$g$h$i$j$k$l$m$n$o$p$q$r$s$t$u$v$w$x$y$z$A$B$C$D$E$F$G$H$I$",
"J$K$L$M$N$O$P$Q$R$S$T$U$V$W$X$Y$Z$`$ %.%+%@%#%$%%%'#&%*%=%-%;%>%",
",%'%)%!%~%{%]%^%/%(%_%+#:%<%[%}%|%1%2%3%4%5%6%7%8%9%0%]%a%b%c%d%",
"e%f%g%g%h%h%i%j%k%l%m%m$n%o%p%q%r%s%t%u%v%w%x%y%z%j%K$A%B%C%D%E%",
"F%G%H%I%J%K%L%j%M%E%N%O%P%Q%R%S%T%U%V%W%X%Y%Z%`% &B%C%D%.&+&@&#&",
",%$&%&K$&&k%J%&&*&=&-&;&>&,&'&)&!&~&{&]&^&/&(&_&:&<&[&:&}&|&1&2&",
"%&3&4&[&D%{%5&6&l%7&8&9&0&a&b&c&d&e&f&g&h&i&j&k&l&m&n&o&p&q&r&s&",
"{%t&E%.&.&D%u&v&w&z%6&x&y&z&A&B&C&D&E&F&G&H&I&J&K&L&M&N&O&P&Q&R&",
"{%A%A%D%S&u&]%z%w&w&l%T&U&V&W&X&Y&Z&`& *.*+*@*#*$*%*&*N&P&N&M&**",
" &=*L$-*;*]%>*,*z%'*a%#&)*!*~*{*]*^*/*`&(*_*:*$*<*[*N&O&}*|*1*2*",
"3*3&4*D%D%w&a%E%5*w&6*7*8*9*0*a*{*b*~$c*d*e*f*g*N&r&h*i*j*k*l*m*",
"n*o*p*q*r*s*t*u*@&v*w*x*y*z*A*B*{*C*D*E*~$F*G*H*N&N&I*J*K*[*L*M*",
"N*O*P*Q*R*S*T*U*V*W*X*Y*Z*`* =.=.#+=d*@=#=$=%=&=*=H*==-=O&M&;=>=",
",='=)=!=~={={=]=^=/=1&(=_=:=<=[=}=|=1={$2=3=4=5=6=7=8=9=0=a=b=c=",
"d=e=f=g=h=i=j=k=l=m=n=Y*o=p=q=r=s=t=u=v=w=x=y=z=A=B=C=D=E=F=G=H=",
"I=J=K=L=M=N=O=P=Q=R=H*S=T=U=V=W=X=Y=Z=`= -.-+-@-#-$-%-&-*-=---c="};
